<?xml version="1.0" standalone="no"?>
<svg xmlns="http://www.w3.org/2000/svg" viewBox="0 0 96 75" width="96" height="75"><g fill="#69a38e" color="#69a38e" transform="translate(25.557 0) scale(0.6285715) "><svg width="70.0" height="70.0" x="0.0" y="0.0" viewBox="0 0 70 70"><title></title><desc></desc><g stroke="none" stroke-width="1" fill="none" fill-rule="evenodd"><g transform="translate(-795.000000, -795.000000)"><path d="M841.478695,837.842626 C841.503174,835.501485 841.931335,832.568335 843.091725,829.409972 C839.510634,822.097613 844.227348,817.320512 855.827794,810.680881 C858.392335,826.75552 848.912512,831.212022 844.663586,830.7273 L844.663586,830.7273 C843.503711,835.12194 843.380127,838.856013 843.302739,841.076097 C848.162454,849.824033 852.036723,857.827951 854.331363,861.896295 C854.945672,865.967475 852.202949,863.861141 852.202949,863.861141 C852.202949,863.861141 850.020233,859.07179 846.480109,852.196469 C844.971322,851.600037 842.455294,850.466249 838.120323,849.47677 L838.120323,849.47677 C836.128623,857.2269 821.793206,854.929108 815.094675,846.606106 C820.776065,842.073207 835.093216,838.156269 837.951283,848.000625 C841.224266,848.389742 843.624121,849.057275 845.250421,849.830183 C842.61476,844.804928 839.380247,838.934877 835.815488,833.099869 C834.462406,832.733879 832.407905,832.202667 829.181988,831.904202 L829.181988,831.904202 C827.422901,838.160252 813.05382,843.845648 805.620991,829.106106 C813.096279,827.414224 826.105616,821.983087 829.07075,830.322263 C831.336536,830.309261 833.115373,830.529972 834.451853,830.896127 C830.74334,824.980673 826.727824,819.216434 822.688481,814.53099 C808.647064,821.30136 807.477758,803.216428 803.338148,801.658393 C808.571251,797.408313 825.685539,799.225747 823.667751,812.933184 C826.259369,815.502033 828.799721,818.556606 831.248147,821.878501 C831.296393,819.766619 831.69223,817.10127 832.676702,814.186347 C830.098226,810.151546 829.343603,798.935147 845.406742,795.125326 C847.67854,809.603522 838.520693,815.358726 834.288792,815.144048 L834.288792,815.144048 C833.360918,818.977698 833.151583,822.255081 833.010277,824.33593 C836.019556,828.644709 838.869029,833.290183 841.478695,837.842626 Z" fill="currentColor"></path></g></g></svg></g><path fill="#295c3c" fill-rule="nonzero" d="M5.66 17.11Q2.16 17.11 2.16 13.94L2.16 13.94L2.16 6.50L0.46 6.50Q0.26 6.50 0.13 6.37Q0 6.24 0 6.05L0 6.05Q0 5.81 0.22 5.64L0.22 5.64L3.48 2.45Q3.70 2.23 3.89 2.23L3.89 2.23Q4.08 2.23 4.21 2.38Q4.34 2.52 4.34 2.71L4.34 2.71L4.34 4.63L7.06 4.63Q7.46 4.63 7.73 4.90Q7.99 5.16 7.99 5.57L7.99 5.57Q7.99 5.95 7.73 6.23Q7.46 6.50 7.06 6.50L7.06 6.50L4.34 6.50L4.34 13.75Q4.34 14.69 4.79 14.94Q5.23 15.19 5.90 15.19L5.90 15.19Q6.38 15.19 6.86 15.05L6.86 15.05Q6.96 15.02 7.07 15Q7.18 14.98 7.34 14.98L7.34 14.98Q7.68 14.98 7.94 15.23Q8.21 15.48 8.21 15.84L8.21 15.84Q8.21 16.39 7.66 16.68L7.66 16.68Q6.72 17.11 5.66 17.11L5.66 17.11ZM11.69 16.99Q11.23 16.99 10.92 16.68Q10.61 16.37 10.61 15.91L10.61 15.91L10.61 5.62Q10.61 5.16 10.92 4.84Q11.23 4.51 11.69 4.51L11.69 4.51Q12.14 4.51 12.47 4.84Q12.79 5.16 12.79 5.62L12.79 5.62L12.79 6.65Q14.47 4.39 16.56 4.39L16.56 4.39L16.68 4.39Q17.14 4.39 17.44 4.70Q17.74 5.02 17.74 5.47L17.74 5.47Q17.74 5.93 17.42 6.22Q17.11 6.50 16.63 6.50L16.63 6.50L16.51 6.50Q15.36 6.50 14.40 7.07Q13.44 7.63 12.79 8.62L12.79 8.62L12.79 15.91Q12.79 16.37 12.47 16.68Q12.14 16.99 11.69 16.99L11.69 16.99ZM24.91 17.11Q21.98 17.11 20.34 15.44Q18.70 13.78 18.70 10.75L18.70 10.75Q18.70 9.05 19.32 7.61Q19.94 6.17 21.24 5.28Q22.54 4.39 24.43 4.39L24.43 4.39Q26.21 4.39 27.50 5.22Q28.80 6.05 29.47 7.43Q30.14 8.81 30.14 10.44L30.14 10.44Q30.14 10.90 29.84 11.21Q29.54 11.52 29.04 11.52L29.04 11.52L20.90 11.52Q21.10 13.20 22.15 14.14Q23.21 15.07 25.10 15.07L25.10 15.07Q26.11 15.07 26.87 14.88Q27.62 14.69 28.34 14.33L28.34 14.33Q28.54 14.23 28.78 14.23L28.78 14.23Q29.16 14.23 29.45 14.50Q29.74 14.76 29.74 15.17L29.74 15.17Q29.74 15.70 29.11 16.06L29.11 16.06Q28.18 16.58 27.26 16.85Q26.35 17.11 24.91 17.11L24.91 17.11ZM20.90 9.74L27.98 9.74Q27.91 8.57 27.37 7.78Q26.83 6.98 26.04 6.61Q25.25 6.24 24.43 6.24L24.43 6.24Q23.62 6.24 22.82 6.61Q22.03 6.98 21.50 7.78Q20.98 8.57 20.90 9.74L20.90 9.74ZM38.50 17.11Q35.57 17.11 33.92 15.44Q32.28 13.78 32.28 10.75L32.28 10.75Q32.28 9.05 32.90 7.61Q33.53 6.17 34.82 5.28Q36.12 4.39 38.02 4.39L38.02 4.39Q39.79 4.39 41.09 5.22Q42.38 6.05 43.06 7.43Q43.73 8.81 43.73 10.44L43.73 10.44Q43.73 10.90 43.43 11.21Q43.13 11.52 42.62 11.52L42.62 11.52L34.49 11.52Q34.68 13.20 35.74 14.14Q36.79 15.07 38.69 15.07L38.69 15.07Q39.70 15.07 40.45 14.88Q41.21 14.69 41.93 14.33L41.93 14.33Q42.12 14.23 42.36 14.23L42.36 14.23Q42.74 14.23 43.03 14.50Q43.32 14.76 43.32 15.17L43.32 15.17Q43.32 15.70 42.70 16.06L42.70 16.06Q41.76 16.58 40.85 16.85Q39.94 17.11 38.50 17.11L38.50 17.11ZM34.49 9.74L41.57 9.74Q41.50 8.57 40.96 7.78Q40.42 6.98 39.62 6.61Q38.83 6.24 38.02 6.24L38.02 6.24Q37.20 6.24 36.41 6.61Q35.62 6.98 35.09 7.78Q34.56 8.57 34.49 9.74L34.49 9.74ZM47.86 16.99Q47.40 16.99 47.09 16.68Q46.78 16.37 46.78 15.91L46.78 15.91L46.78 1.58Q46.78 0.94 47.23 0.47Q47.69 0 48.34 0L48.34 0L49.13 0Q49.61 0 50.00 0.29Q50.40 0.58 50.59 1.01L50.59 1.01L56.04 14.59L61.49 1.01Q61.68 0.58 62.08 0.29Q62.47 0 62.95 0L62.95 0L63.74 0Q64.39 0 64.85 0.47Q65.30 0.94 65.30 1.58L65.30 1.58L65.30 15.91Q65.30 16.37 64.99 16.68Q64.68 16.99 64.22 16.99L64.22 16.99Q63.77 16.99 63.44 16.68Q63.12 16.37 63.12 15.91L63.12 15.91L63.12 2.28L57.58 15.98Q57.38 16.44 56.96 16.72Q56.54 16.99 56.04 16.99L56.04 16.99Q55.54 16.99 55.12 16.72Q54.70 16.44 54.50 15.98L54.50 15.98L48.96 2.28L48.96 15.91Q48.96 16.37 48.64 16.68Q48.31 16.99 47.86 16.99L47.86 16.99ZM72.65 17.11Q71.59 17.11 70.69 16.68Q69.79 16.25 69.26 15.42Q68.74 14.59 68.74 13.51L68.74 13.51Q68.74 11.74 70.14 10.68Q71.54 9.62 74.26 9.62L74.26 9.62L77.16 9.62L77.16 9.43Q77.16 7.85 76.38 7.15Q75.60 6.46 73.94 6.46L73.94 6.46Q73.03 6.46 72.32 6.60Q71.62 6.74 70.75 7.03L70.75 7.03Q70.56 7.08 70.44 7.08L70.44 7.08Q70.08 7.08 69.82 6.82Q69.55 6.55 69.55 6.17L69.55 6.17Q69.55 5.52 70.18 5.26L70.18 5.26Q72.22 4.39 74.33 4.39L74.33 4.39Q75.98 4.39 77.12 5.06Q78.26 5.74 78.80 6.80Q79.34 7.87 79.34 9.12L79.34 9.12L79.34 15.91Q79.34 16.37 79.02 16.68Q78.70 16.99 78.24 16.99L78.24 16.99Q77.78 16.99 77.47 16.68Q77.16 16.37 77.16 15.91L77.16 15.91L77.16 15.29Q75.38 17.11 72.65 17.11L72.65 17.11ZM73.46 15.19Q74.52 15.19 75.50 14.68Q76.49 14.16 77.16 13.39L77.16 13.39L77.16 11.38L74.54 11.38Q70.92 11.38 70.92 13.27L70.92 13.27Q70.92 14.14 71.51 14.66Q72.10 15.19 73.46 15.19L73.46 15.19ZM84.10 22.51Q83.64 22.51 83.33 22.19Q83.02 21.86 83.02 21.41L83.02 21.41L83.02 5.59Q83.02 5.14 83.33 4.82Q83.64 4.51 84.10 4.51L84.10 4.51Q84.55 4.51 84.88 4.82Q85.20 5.14 85.20 5.59L85.20 5.59L85.20 6.22Q86.95 4.39 89.30 4.39L89.30 4.39Q90.79 4.39 92.12 5.15Q93.46 5.90 94.28 7.36Q95.11 8.81 95.11 10.75L95.11 10.75Q95.11 12.70 94.28 14.15Q93.46 15.60 92.12 16.36Q90.79 17.11 89.30 17.11L89.30 17.11Q86.95 17.11 85.20 15.29L85.20 15.29L85.20 21.41Q85.20 21.89 84.89 22.20Q84.58 22.51 84.10 22.51L84.10 22.51ZM88.99 15.07Q90.77 15.07 91.85 13.94Q92.93 12.82 92.93 10.75L92.93 10.75Q92.93 8.69 91.85 7.56Q90.77 6.43 88.99 6.43L88.99 6.43Q87.89 6.43 86.92 6.92Q85.94 7.42 85.20 8.23L85.20 8.23L85.20 13.27Q85.94 14.09 86.92 14.58Q87.89 15.07 88.99 15.07L88.99 15.07Z" transform="translate(0, 52)"></path></svg>