<svg id="DEF_7" data-name="DEF 7" xmlns="http://www.w3.org/2000/svg" viewBox="0 0 148 91.62"><rect x="75.19" y="14.38" width="6" height="28.81"/><path d="M384.66,577h-6V559.4a7.1,7.1,0,1,0-14.2,0V577h-6V559.4a7.1,7.1,0,1,0-14.2,0V577h-6V547.27h5.44l.56,1.45a12.69,12.69,0,0,1,7.1-2.42,13.11,13.11,0,0,1,10.1,4.77,13.09,13.09,0,0,1,23.2,8.33Z" transform="translate(-338.26 -497.98)"/><path d="M416.45,508.34a5.18,5.18,0,1,1,5.18-5.18A5.18,5.18,0,0,1,416.45,508.34Z" transform="translate(-338.26 -497.98)"/><path d="M404.51,578.08a15.89,15.89,0,1,1,8.94-29l.57-1.72h5.43V577H414l-.57-1.7A16,16,0,0,1,404.51,578.08Zm0-25.78a9.89,9.89,0,1,0,8.94,14.12V558A9.89,9.89,0,0,0,404.51,552.3Z" transform="translate(-338.26 -497.98)"/><path d="M430.52,589.6h-6V547.33H430l.57,1.68a15.89,15.89,0,1,1,0,26.36Zm0-23.07a9.89,9.89,0,1,0,0-8.68Z" transform="translate(-338.26 -497.98)"/><path d="M438.89,542.31c-9,0-14.38-6.45-14.38-14.38V512.36h6v15.57a8,8,0,0,0,8.38,8.38,8.39,8.39,0,0,0,8.37-8.38V512.36h6v28.81h-5.43l-.57-1.56A14.31,14.31,0,0,1,438.89,542.31Z" transform="translate(-338.26 -497.98)"/><path d="M481.94,538.91c-2.74-2.57-6.45-3.91-9.72-5.1-2.63-.95-5.1-1.85-6.46-3.12a7.36,7.36,0,0,1-2.36-5.43,8.35,8.35,0,0,1,16.66,0h6.2c0-7.72-6.52-14-14.53-14s-14.53,6.27-14.53,14a13.48,13.48,0,0,0,2.34,7.63,13.61,13.61,0,0,0,2,17.58c2.74,2.57,6.45,3.91,9.72,5.1,2.63.95,5.1,1.85,6.46,3.11a7.4,7.4,0,0,1,2.36,5.44,8.35,8.35,0,0,1-16.66,0h-6.2c0,7.71,6.52,14,14.53,14s14.53-6.28,14.53-14a13.48,13.48,0,0,0-2.34-7.63,13.61,13.61,0,0,0-2-17.58Zm-2.7,13.33a39.94,39.94,0,0,0-5.88-2.5c-2.85-1-5.79-2.1-7.59-3.79a7.39,7.39,0,0,1-1.55-8.81,39.61,39.61,0,0,0,5.89,2.5c2.84,1,5.78,2.1,7.58,3.79a7.39,7.39,0,0,1,1.55,8.81Z" transform="translate(-338.26 -497.98)"/></svg>